<svg xmlns="http://www.w3.org/2000/svg" viewBox="0 0 679.71 206.41"><defs><style>.cls-1{fill:#11b0c8;}</style></defs><g id="Capa_2" data-name="Capa 2"><g id="Layer_1" data-name="Layer 1"><path class="cls-1" d="M464.61,177.67a15.9,15.9,0,0,0-2.67-10c-2-3.13-3-6.52-1.49-10.25l.24-.84c.88-3.37.48-6.47-1.92-9.05a7.15,7.15,0,0,1-1.77-6.72,12,12,0,0,0-1.48-9.5,8.66,8.66,0,0,1-.65-8.6,54.69,54.69,0,0,0,2.6-8.17,10.74,10.74,0,0,0-.22-6.54,8.13,8.13,0,0,1-.07-5,51.85,51.85,0,0,0,.88-5.42,4.07,4.07,0,0,0-1.28-3.6,5.13,5.13,0,0,1-1.56-4.6c.27-2,.65-4.07-.38-6a2.6,2.6,0,0,1,0-1.31,21.7,21.7,0,0,0-2-10.08,11.86,11.86,0,0,1-.89-5.83,43.32,43.32,0,0,0-.51-11.66c-.71-4.13-1.82-8.18-2.66-12.29a16.37,16.37,0,0,1-.4-4.35c.17-2.94.51-5.86.89-8.78A35.89,35.89,0,0,1,452,18.89c1.41-3.14,2.71-6.33,4-9.52a23.45,23.45,0,0,0,1.15-3.56,5.36,5.36,0,0,0-.53-4.26C455.51-.21,454-.54,452.53.93a18.17,18.17,0,0,0-3.17,4.13,43.59,43.59,0,0,1-5.64,8.29,9.71,9.71,0,0,0-2.29,6.27c-.18,4.67-1.2,9-4.47,12.57a25.24,25.24,0,0,0-2.49,3.3,16.11,16.11,0,0,0-2,3.64,62.42,62.42,0,0,0-2.66,9.31c-.69,4.23-1.76,8.32-2.84,12.44a19.68,19.68,0,0,1-4.75,8.72,13.94,13.94,0,0,0-3.14,5.47c-.77,2.45-1.44,4.93-2.08,7.43a21.51,21.51,0,0,0-.59,3.47c-.49,5.58-.89,11.16-1.43,16.72-.14,1.32,0,2.79-.9,4l-.38-.34c-1.41-2-1.58-4.33-1.8-6.71a131.66,131.66,0,0,1-.83-16.73c.07-1.69,0-3.39.05-5.08a3.78,3.78,0,0,0-1.52-3.24c-.39-.32-.79-.61-1.24-.95.08-1,.17-2.07.24-3.09a9.74,9.74,0,0,0-1.7-6.89,5.13,5.13,0,0,1-.79-2.87c0-2.5.25-5,.44-7.5a6.41,6.41,0,0,0-2-5.17A6.32,6.32,0,0,1,403.54,47,4.27,4.27,0,0,1,402.6,45a52.63,52.63,0,0,1,.78-7.21c.36-1.87,1.18-3.63,1.69-5.47.92-3.32,1.89-6.63,2.62-10a3,3,0,0,0-1.85-3.58c-1.34-.64-2.47-.49-3.54,1a93.73,93.73,0,0,0-5.14,8.1A15.3,15.3,0,0,0,395.87,32c-.51,2.39-1.06,4.77-2.79,6.58a15.15,15.15,0,0,0-3.54,7A14,14,0,0,1,389,47c-1.16-3.11-1.63-3.41-4.15-2.79a7.68,7.68,0,0,0-.29-1.26c-.7-1.75-2-2-3.28-.62a6.19,6.19,0,0,0-1.32,2c-1,2.77-2,5.54-2.72,8.37s-1.13,5.78-1.87,8.62c-1.62,6.25-2.81,12.64-5.41,18.59a10.23,10.23,0,0,0-.58,2.35A33.65,33.65,0,0,0,369.57,95a43,43,0,0,1,.18,15.18c-.48,3.27-2.33,5.8-4.33,8.22a17.88,17.88,0,0,0-4.16,13.28,22.12,22.12,0,0,0,1.65,7c1.65,3.89,2.26,7.88.77,12a9.42,9.42,0,0,0-.52,2.14,9.7,9.7,0,0,0,.51,5.42,8.66,8.66,0,0,1,.66,3.4c0,4.49-.07,9-.08,13.49a9.2,9.2,0,0,0,.35,2.38,2.89,2.89,0,0,0,2.07,2.31c1.25.3,2-.54,2.66-1.45a11.32,11.32,0,0,0,2.16-5.47,36.74,36.74,0,0,1,2.89-10.35,16.06,16.06,0,0,0,1-4.93,36.76,36.76,0,0,0-1.14-9.62,6.73,6.73,0,0,1-.15-2.4,17,17,0,0,1,4.82-9.87,8.36,8.36,0,0,0,2.85-7.65c-.09-.74,0-1.49-.18-2.21a15.25,15.25,0,0,1,.28-6.55,68,68,0,0,0,1.64-9.11,99.63,99.63,0,0,1,2.4-15A18,18,0,0,0,385.52,85a15.12,15.12,0,0,1,.06-10c.55-1.66.86-3.41,1.39-5.09.58-1.86,1-3.82,2.65-5.71a16.44,16.44,0,0,1,.3,2.43c-.12,2.21-.27,4.41-.48,6.6-.27,2.85.32,5.29,2.76,7A4.38,4.38,0,0,1,394,83.3a4,4,0,0,0,1.93,3c2.57,1.23,3,3.51,3.23,6l.07.66c.5,4.4,1.25,8.7,3.36,12.69.86,1.61,1,3.66,1.35,5.52a21.74,21.74,0,0,0,.6,3.68,13.9,13.9,0,0,1,.51,6.74c-.46,4.88.81,7.71,5,8.56a2,2,0,0,1,1.7,2c.11,1.1.25,2.19.39,3.29.35,2.85.78,5.7,2.5,8.11a3.7,3.7,0,0,0,4.06,1.79,4.14,4.14,0,0,0,2.81-3.76,33.2,33.2,0,0,0,.19-5.08,23.73,23.73,0,0,1,3.16-12.67,11.29,11.29,0,0,0,1.24-3.71,66.05,66.05,0,0,0,.48-7c.13-4.25.87-8.22,4.16-11.19l.43-.49c3-4.21,4.64-8.75,3.6-14.06-.79-4.08-.11-8.06.94-12,.2-.77.51-1.51.77-2.27a6.36,6.36,0,0,1,.36,2.52,7,7,0,0,0,2.82,6.12,7.84,7.84,0,0,1,1.38,1.38,4.56,4.56,0,0,1,1.12,4.28c-.42,1.57-.84,3.12-1.29,4.68-.89,3-2.2,6-2.63,9.07a25.93,25.93,0,0,0,1.25,13.07,9.12,9.12,0,0,1,.73,2.74,57.12,57.12,0,0,1,0,6.41,26.44,26.44,0,0,0,5.91,19.06,5,5,0,0,1,.83,4.73,48.5,48.5,0,0,0-1.17,7.59,5.39,5.39,0,0,0,3.52,5.92l.36.4c0,1.39,0,2.86,0,4.33a6.22,6.22,0,0,0,2,4.92,26.62,26.62,0,0,0,3.54,2.83,3,3,0,0,1,1.5,3.33c-.18,1.38-.25,2.78-.34,4.18a2.68,2.68,0,0,0,1.31,2.8c1,.55,1.76-.09,2.52-.65l.41,0,.27.31c1.24,1.3,2,1.52,3.15.87s1.32-1.6.92-3.26a10.12,10.12,0,0,1-.43-3"/><path class="cls-1" d="M124.86,186.18a13.47,13.47,0,0,0-3.38-7.25,14,14,0,0,1-3.86-8.85,8.84,8.84,0,0,0-6-8.06,4.44,4.44,0,0,1-2.53-2.18c-.65-1.31-1.4-2.57-2-3.92a5.06,5.06,0,0,0-3.55-3.24,4,4,0,0,1-3.16-3.41,18.65,18.65,0,0,1-.46-1.93,12.92,12.92,0,0,0-6.37-9.46,5.69,5.69,0,0,1-2.2-2.83,32.94,32.94,0,0,0-3.62-7c-2.25-2.86-5.08-5.06-9.08-3.42l-.51-.15c-.48-1-.92-2.22-1.53-3.28-1.49-2.58-2.47-2.81-5-1.32l-.35,0c-.21-.47-.45-1-.69-1.5-.86-1.78-1.63-3.61-2.6-5.32-.88-1.53-1.94-2.92-4-2.82-.53,0-1.08-.48-2-.93a20.35,20.35,0,0,1,2.2-1.56,8,8,0,0,0,4.12-4.56,2.64,2.64,0,0,1,1.78-1.75,15.2,15.2,0,0,1,3.11-.7c2.83-.26,4.71-2,6.09-4.32a21.93,21.93,0,0,0,2.92-7.78c.22-1.45.47-2.77,1.91-3.66a4.29,4.29,0,0,0,1.36-2.4A13.24,13.24,0,0,0,86,79.17,7.05,7.05,0,0,1,87.84,74a11.06,11.06,0,0,0,2.69-9.81c-.48-3-.79-5.93.28-8.93a7.58,7.58,0,0,0-2.46-9.08,2.68,2.68,0,0,1-1.07-2.66c.09-.65.16-1.32.19-2,.1-2.28.22-4.55.24-6.83a3.41,3.41,0,0,0-.58-1.86c-2.54-3.49-4.58-4.56-8.17-3.27a12.06,12.06,0,0,1-2.24.69c-1.24.21-1.67-.2-1.81-1.49a27,27,0,0,0-.29-2.85,3.28,3.28,0,0,0-3.4-3A8.35,8.35,0,0,0,69.1,23a6.17,6.17,0,0,1-5.73-1.46,21.67,21.67,0,0,0-4.18-2.63c-2.52-1.36-5.11-2.57-7.61-4a10.45,10.45,0,0,0-4.88-1.39,18.21,18.21,0,0,1-2.56-.07c-2.75-.51-5,.53-7.1,2.24-2.35,1.91-4.75,3.76-7.21,5.52-3.24,2.31-6.74,3.46-10.68,2.16l-.83-.18a5.87,5.87,0,0,0-4.53.62,18.1,18.1,0,0,0-6,4.83c-1,1.2-2,1.66-3.52.93-1.36-.63-2.14-.37-2.79.74-1.54,2.64-2.54,7,.66,10.15.52.51,1,1,1.59,1.49,2.22,1.9,2.52,4.29,1.7,7a30.49,30.49,0,0,0-1,3.61c-.87,5-.49,9.71,3.66,13.31a15.93,15.93,0,0,1,2.29,2.61C11.63,70.19,12.56,72,12,74.23c-.42,1.7-.61,3.47-1,5.17a4.81,4.81,0,0,0,.46,4,2.77,2.77,0,0,1,.45,1.64,7.17,7.17,0,0,0,.73,3.85,5.59,5.59,0,0,1,.26,4,7.11,7.11,0,0,0,1.21,6.67c.69.85,1.31,1.74,2,2.59a4.42,4.42,0,0,1,1.05,4.28,7.85,7.85,0,0,0,.57,5.56,30.06,30.06,0,0,1,2.93,12.36c0,2.45.23,5-1.18,7.29-1.2,1.91-.52,3.84.7,5.3a20.88,20.88,0,0,1,3.34,6.85,3.42,3.42,0,0,1-.31,3.14c-1.88,3.06-2,6.34-1.22,9.79a21.27,21.27,0,0,0,2.86,6.62,12.18,12.18,0,0,1,1.85,4.65,5.59,5.59,0,0,0,1.87,3.61,2.21,2.21,0,0,1,.72,1.27c.23,2.4.78,4.77.11,7.23s-.11,3.83,2.09,5.19a4.33,4.33,0,0,1,2.1,3.82c.07,1.25,0,2.51,0,3.76a7.7,7.7,0,0,0,2.46,5.68c.77.67,1.6,1.35,2.69.88a2.74,2.74,0,0,0,1.57-2.67c0-1.4,0-2.81-.12-4.2-.15-2.43-.07-4.74,2.34-6.11l.32-.3c2.53-2.6,2.79-5.32,1-8.55-1.29-2.38-1.88-4.9-.72-7.6a10.93,10.93,0,0,0,.91-3.39,7,7,0,0,0-.5-3.39,54.67,54.67,0,0,0-3.24-5.45c-1.78-2.79-2.79-5.65-.87-8.83l.26-.6c1.82-3.44,2-6.87-.08-10.27a2.64,2.64,0,0,1,0-3.08c1.31-1.93,1.05-3.85,0-5.82a27,27,0,0,1-1.56-3.63c-.81-2.37-.07-3.82,2.66-4.82,1.08,1.22,2.24,2.61,3.48,3.93a6.22,6.22,0,0,0,6.61,2c1.9-.56,3,.25,3.94,1.7s1.81,3.17,2.81,4.68a21.73,21.73,0,0,0,2.7,3.39c1.06,1.06,1.9.92,3-.15,2-2,2.4-2,4.29,0a4.22,4.22,0,0,0,3.72,1.74,2.08,2.08,0,0,1,2.37,1.42c1,2.27,2,4.52,3,6.83,1.14,2.9,3,3.82,5.73,2.63.39-.17.77-.37,1.17-.54,1.53-.64,1.69-.67,2.57.87,1.08,1.89,2.07,3.86,3,5.85A8,8,0,0,0,95,160a4,4,0,0,1,3.17,2.49c.35.73.76,1.42,1.11,2.15,1.59,3.35,3.4,6.48,7.13,7.73l.72.48c1.83,1.31,3.57,2.68,3.69,5.32s1.17,5,2.11,7.38a7,7,0,0,0,3.1,3.79,5.49,5.49,0,0,1,2.57,3.11,40.63,40.63,0,0,0,1.64,3.84c.83,1.73,2.35,2.81,3.42,2.52s1.69-1.57,1.64-3.73c0-1-.5-2-.23-2.83.69-2.11.1-4.1-.21-6.1M60.11,92.38a4.8,4.8,0,0,1-1.53.53c-1.16.28-2.37.4-3.49.79a20.92,20.92,0,0,0-3.71,1.68A8.68,8.68,0,0,0,49,97.44a8.36,8.36,0,0,1-3.54,2.64,20.7,20.7,0,0,0-1.57-1.36c-2.51-1.76-4-1.89-6-.33a22.91,22.91,0,0,1-2.27,1.35c.2-1.39.26-2.3.48-3.15s.63-1.49.91-2.24c.85-2.32.59-3.3-1.45-4.64a2.23,2.23,0,0,1-1.14-2.16c0-1.47,0-3,0-4.43a4.9,4.9,0,0,0-2.8-4.78c-1.32-.66-1.43-1.14-1.11-2.65a27.19,27.19,0,0,0,.47-2.82c.37-3.18-1.17-5.4-3.43-7.29a2.09,2.09,0,0,1-.77-1.4c.05-2.26-.67-4.51.18-6.78.54-1.44-.34-2.59-1.28-3.52a5.19,5.19,0,0,1-1.29-5.08c.3-1.59,1-2.07,2.55-1.85a9,9,0,0,1,1.27.19c3.49,1.1,6.25-.28,8.68-2.76.41-.41.83-.81,1.22-1.23a5.48,5.48,0,0,1,4.86-1.74c1.21.13,2.39.43,3.6.49,1.55.09,3.1,0,4.83,0,3.4,6.39,4.86,7.15,10.08,5.18,1.26,1.32,2.67,2.51,1.75,4.83a3.09,3.09,0,0,0,.7,3.1c1,1.24,2,2.48,3.13,3.62a25.93,25.93,0,0,0,2.53,2.08c-.56.95-.82,1.45-1.13,1.91-1.26,1.89-1.51,3.21-.14,4.84,1.89,2.23.9,4.59.79,6.94l-.27.58c-1.35,1.58-2.72,3.14-4.07,4.72a10.48,10.48,0,0,0-2,5.48c-.18,1.16-.25,2.34-.42,3.51a5,5,0,0,1-2.14,3.66"/><path class="cls-1" d="M678.31,90.91a3.18,3.18,0,0,0-2.88.15c-2.41,1.08-4.85,2.1-7.19,3.31a15.27,15.27,0,0,0-4.24,2.9c-3.56,3.89-8.69,5.31-12.51,8.75l-.38.2c-3.42,1.43-6.78,3.07-10.29,4.22-3.06,1-6.21,1.6-8.27,4.63a4.94,4.94,0,0,1,.23-2,5.4,5.4,0,0,0-.57-4.85c-.68-1.13-1.44-2.2-2.11-3.33a3.68,3.68,0,0,1-.72-1.75A5.76,5.76,0,0,0,628,99.51a5,5,0,0,1-.94-2.58c-.13-4.56-.11-9.12-.2-13.68a6,6,0,0,0-2.94-5.3,3.13,3.13,0,0,1-1.36-1.59c-1.18-4.45-3.77-8.45-4-13.22a5.19,5.19,0,0,0-.34-1.5c-1.4-3.78-2.75-7.59-4.27-11.31A22.75,22.75,0,0,0,611.44,46c-.36-.51-1.26-1.12-1.68-1a2.58,2.58,0,0,0-1.41,1.69,17.75,17.75,0,0,0-.05,3.72c.12,3.82.27,7.64.42,11.52-2.32.53-2.88,2.13-2.75,4,.18,2.57.47,5.12.75,7.67.16,1.46.52,2.9.56,4.36.08,2.87,0,5.75,0,8.62a21,21,0,0,0,1.8,9.24,20.2,20.2,0,0,1,1.91,7.63c.07,1.4.14,2.8.1,4.2a3.77,3.77,0,0,0,1.47,3.27c.71.56,1.52,1,2.71,1.71-.93,3.48-1.78,7-2.83,10.56s-2.37,6.6-1.44,10.31c.42,1.68-.23,2.36-1.84,2.94-1,.36-2.06.59-3,1-2.58,1-5.2,2-7.68,3.27-2.13,1.09-2.26,2.49-.75,4.42l.33.49-.24.42c-.48.3-1,.6-1.48.87a26.65,26.65,0,0,0-8.12,7.06c-1.56,1.94-1.58,3.24-.32,5.22,1.47,2.29,1.44,3-.51,4.88-2.37,2.22-4.8,4.38-7.23,6.52a8.28,8.28,0,0,0-2.55,3.47,2.16,2.16,0,0,1-1,1.24,10.38,10.38,0,0,0-5.45,5.34,11.41,11.41,0,0,1-4.69,5c-1.13.6-2.36,1-3.47,1.66-4.95,2.87-9,6.91-13.07,10.94a11.31,11.31,0,0,0-2,3.58c-.56,1.31-.83,2.71.47,3.83,1.1.94,2.41.94,4,0l.87-.63c2.89-2.51,5.73-5.08,8.66-7.53a12.09,12.09,0,0,1,3.61-2.24,77.78,77.78,0,0,1,7.82-2.12,14,14,0,0,0,7.38-4.12c2.74-3,5.64-5.82,8.49-8.71a8,8,0,0,1,1.48-1.25,9.7,9.7,0,0,0,4-4.8,34,34,0,0,1,6-9.34c1.05-1.29,2.22-2.49,3.21-3.84a8.3,8.3,0,0,0,1.44-2.88,11.94,11.94,0,0,1,5.15-7.29c3.63-2.47,7.19-5,10.79-7.53a10.69,10.69,0,0,0,3.59-4.28,16.65,16.65,0,0,1,2-3.11,16.29,16.29,0,0,1,8.33-5.46,18.35,18.35,0,0,0,11.51-10.41,7,7,0,0,1,2.74-3,13.85,13.85,0,0,1,2.5-1.24,21.61,21.61,0,0,0,6.63-4.34,21.65,21.65,0,0,1,3.78-2.87,51.53,51.53,0,0,0,11.14-8.48c2-1.92,3.84-4,5.67-6,1.18-1.31.84-2.57-.7-3.34"/><path class="cls-1" d="M331.66,130.71c-1.18-2.94-2.24-5.88-2-9.17.13-2.26-.06-4.54,0-6.81a30.29,30.29,0,0,1,.53-5.48c.7-3.15,1.62-6.25,2.5-9.36a4.26,4.26,0,0,0-.59-4,6.13,6.13,0,0,1-1-5.43c.54-2.35,1.27-4.67,1.87-7a8.48,8.48,0,0,0,.42-2.57,3.56,3.56,0,0,0-2-3.4,3.19,3.19,0,0,0-3.83,1.14,9.6,9.6,0,0,0-1.81,2.71,44,44,0,0,0-1.59,5.47c-.86,3.63-1.64,7.29-2.46,10.93l-.29.83a21,21,0,0,0-2.64,8.77,4.62,4.62,0,0,1-2.47,3.55,31.38,31.38,0,0,0-5.82,4.73,61.08,61.08,0,0,0-4.47,5.61,28.87,28.87,0,0,1,.19-3.85c.76-4.33,1.63-8.65,2.44-13,.41-2.16.84-4.33,1.11-6.52a9.18,9.18,0,0,0-.2-3.47c-.39-1.34-1.18-2.59-2.77-2.69a3.41,3.41,0,0,0-3.28,2.05,10.33,10.33,0,0,0-.65,1.39c-1.87,4.8-3.73,9.6-5.71,14.73-.66-3.14-1.9-5.41-5.29-4.61A18.64,18.64,0,0,1,290,99a8.66,8.66,0,0,0-2.19-4.23,2.56,2.56,0,0,0-3-.53,2.51,2.51,0,0,0-1.75,2.5c0,1.09-.16,2.19-.24,3.29-.13,1.82-.34,3.65-.35,5.48a52.26,52.26,0,0,0,.32,5.73c.32,2.84-1.36,4.7-2.79,7a41.94,41.94,0,0,1-1.87-4,23.52,23.52,0,0,1-.37-2.83c-.31-1.43-.77-2.83-1.09-4.26-.35-1.64-.64-3.3-.91-5-.13-.8-.1-1.62-.24-2.41-.68-3.83-1.73-7.58-1.74-11.53a15.82,15.82,0,0,0-.48-3.69c-.35-1.34-1.32-2-2.3-1.82a4.46,4.46,0,0,0-3.21,2,29.64,29.64,0,0,0-1.81,4c-.51,1.44-.81,3-1.19,4.47-.26,1-.83,1.69-1.95,1.63-2.05-.09-3.08,1.24-3.81,3-.51,1.21-.88,2.5-1.47,3.67a11.26,11.26,0,0,0-.67,9.58,4.75,4.75,0,0,1,.13,3.44c-1.41,4-2.09,8.28-4.38,12a5.76,5.76,0,0,0-.92,2.45c-.12,1.43-.44,3.2.19,4.27a10.21,10.21,0,0,1,1.3,5.87,5.8,5.8,0,0,0,.14,1.32,2.93,2.93,0,0,0,2.49,2.38c1.24.06,2-.6,2.46-2.26a7.26,7.26,0,0,1,1.67-3.26,3.55,3.55,0,0,0,.76-3.9,2.85,2.85,0,0,1,.51-2.86,19.86,19.86,0,0,0,1.37-2,5.4,5.4,0,0,0,.71-2.22c0-2.48,1.26-4.25,2.65-6.17a5.23,5.23,0,0,0,1.14.88c1.69.6,2.29,2.06,2.77,3.63.66,2.25,1.18,4.56,2,6.74,1.14,3,2.5,5.91,3.79,8.86l.53.69a2.18,2.18,0,0,0,2.52.64,2.8,2.8,0,0,0,2.09-2.76c0-2.93-.09-5.88-.16-8.82-.05-1.64-.15-3.29-.24-5.19,1.5.82,2.09,1.77,2,3.18-.06.66,0,1.34,0,2-.39,2.55,1.21,3.94,2.81,5.32a1.4,1.4,0,0,0,2,0c1.52-1.47,3-3,2.71-5.45a5.6,5.6,0,0,1,.06-2,11,11,0,0,0-.52-6.91,2.62,2.62,0,0,1,0-2.35,16.3,16.3,0,0,1,2.75,2.66c1.49,2.33,2.8,4.77,4.1,7.22,1,1.93,1.9,3.94,2.9,5.89a2.56,2.56,0,0,0,2.52,1.7,2.61,2.61,0,0,0,2.43-2.13c.22-.82.54-1.61.85-2.54l.28.32.08.65a6.26,6.26,0,0,0,4.41,5.88,18,18,0,0,1,2.7,1.27,7.39,7.39,0,0,0,9.9-1.94c.4-.5.76-1,1.32-1.76.23,1.12.42,2,.57,2.82a10,10,0,0,0,2.88,5.31,3.64,3.64,0,0,0,4.88.35,4.23,4.23,0,0,0,2-4.09,32.15,32.15,0,0,0-2.26-9.4M263.84,111c1.23-3.4,2.4-6.6,3.56-9.79l.55.14a28.11,28.11,0,0,0,.06,5,25.48,25.48,0,0,0,1.86,4.62Zm55.52,16.67c-.72.62-1.25,1.46-1.93,2.14-1.17,1.17-2.62,1-2.85-.58a15.36,15.36,0,0,1,.38-4.45,3.59,3.59,0,0,1,2.34-3.11c1.37-.59,2.46-1.9,4-3.18.36,3.55.91,6.69-2,9.18"/><path class="cls-1" d="M231.2,62.67a20.77,20.77,0,0,0-4.53,1,20,20,0,0,0-4.83,2.8c-4.31,3.48-8.53,7.09-12.76,10.69-1,.9-2,2-3.47,1.85a4.44,4.44,0,0,0-3.33,1.21c-1.56,1.29-3.06,2.65-4.63,3.92a11.09,11.09,0,0,1-2.34,1.5c-1.4.64-2.87,1.14-4.33,1.7a5.73,5.73,0,0,1-.1-5.59,8.74,8.74,0,0,0,.85-2.49c.41-2.53,1-5-.47-7.51a7,7,0,0,1-.36-2.79c-.1-1.24.16-2.66-.32-3.7a6.1,6.1,0,0,1,0-4.85c.2-.63.42-1.25.58-1.89a18.93,18.93,0,0,0,.42-8.53c-.62-3.18-3.26-4.18-5.78-2.2l-1.31,1c-2.52-.66-3-.59-4.11,1.12a6.21,6.21,0,0,0-1,2.63c-.14,1.31.05,2.65,0,4-.07,4.11.27,8.32-.39,12.33a83,83,0,0,1-3.87,15.37,35,35,0,0,0-1.08,4.71c-.33,1.5-.56,3-1,4.49-.67,2.31-1.54,4.57-2.21,6.89a7,7,0,0,0-.14,2.63,3.34,3.34,0,0,0,2.31,2.9c1.19.41,2.06-.23,2.79-1.13.86-1.08,1.69-2.18,2.57-3.25.37-.45.82-.84,1.24-1.27l.51.3c-.3,1.25-.62,2.5-.89,3.76a13.61,13.61,0,0,0-.5,2.8,19.09,19.09,0,0,1-2.28,9.71c-.74,1.27-1.16,3,.1,4.1s1.21,2.54.95,4q-1.17,6.85-2.41,13.69a10.3,10.3,0,0,1-.71,2.31,36.39,36.39,0,0,0-2.11,7.83c-.62,2.86.66,4.67,2.3,6.47,1,1.1,2,1.21,3,.14a10,10,0,0,0,2.37-3.57,64.9,64.9,0,0,1,2.94-8,10.67,10.67,0,0,0,.61-2.11c.58-2.8,1.13-5.62,1.69-8.43.53-2.66,1.06-5.32,1.67-8.32,2.27,1.1,3.36-.44,4.54-1.9.27-.34.77-.46,1.28-.75a18,18,0,0,0,1.32,3.47,17.35,17.35,0,0,0,2.37,2.49l.49.72c1.79,3.44,3.77,6.83,4,10.85a7.93,7.93,0,0,0,3.15,5.76,11.41,11.41,0,0,1,3.82,6.71,23.7,23.7,0,0,0,4.54,9.38,7.82,7.82,0,0,1,1.52,4,10.89,10.89,0,0,0,.77,3.63,15.1,15.1,0,0,1,1.7,5.62,2.52,2.52,0,0,0,2.59,2.4c1.5,0,2.23-.63,2.6-2.32.06-.28.07-.58.12-1,2.13,0,3.19-.55,3.46-2.25a13.25,13.25,0,0,0-.26-7c-.42-1.09-.77-2.22-1.12-3.34-2.09-6.58-4.1-13.16-4.45-20.18a11.14,11.14,0,0,0-1.84-4.86,21,21,0,0,1-3.09-7.89c-.61-4-2.18-5.36-6-6a5,5,0,0,1-3.63-2c-2.05-3-4.16-6-6.23-9-.3-.42-.52-.88-.78-1.33-.69-1.19-1.33-2.4-2.07-3.56a4,4,0,0,1,1.9-6.12c1.59-.63,3.2-1.22,4.79-1.85,4.53-1.8,7.68-4.85,8.85-9.94.69-3,2.16-5.45,5.13-6.61.6-.24,1.13-.64,1.71-.91a13.35,13.35,0,0,0,6.49-6.75A8.47,8.47,0,0,1,227,71.53c2-1.76,3.85-3.7,5.71-5.63a1.8,1.8,0,0,0,.47-2.2,1.7,1.7,0,0,0-1.94-1"/><path class="cls-1" d="M549.14,158.38a3.84,3.84,0,0,0,.59-3.37,58.69,58.69,0,0,0-1.92-5.6,16.73,16.73,0,0,1-1.41-9.21A19.21,19.21,0,0,0,543,125.76a7.4,7.4,0,0,1-1.51-5.7,6,6,0,0,0-.61-4.07c-1.78-2.93-3.49-5.91-6.57-7.68a1.51,1.51,0,0,1,0-2.67c.65-.45,1.42-.68,2.11-1.08a28.14,28.14,0,0,0,3.64-2.23,10.4,10.4,0,0,1,4.57-2.23,6.8,6.8,0,0,0,1.92-.84,12.76,12.76,0,0,0,4.64-5.07,6.06,6.06,0,0,0,.79-3.81,15.26,15.26,0,0,0-.34-2.63,8.77,8.77,0,0,0-1.32-3.4,39.35,39.35,0,0,1-3.45-5.26,2.64,2.64,0,0,1-.19-3.18c1.08-1.84.66-3.48-.85-5A6,6,0,0,0,540,69.14a7.55,7.55,0,0,1-5.36-.91c-2.65-1.4-4.34-1.26-6.29,1s-3.71,4.83-5.54,7.27c-.29.38-.56.79-.89,1.27-1.11-1-1-2.33-1.16-3.54-.33-2.7-.59-5.41-1.11-8.07a2.51,2.51,0,0,0-2.53-2.27,3.07,3.07,0,0,0-2.9,2.47,8.22,8.22,0,0,0-.12,1.93c-.07,1.9,0,3.82-.21,5.71-.37,3.66-1.14,7.29-1.23,10.95a64,64,0,0,1-1.48,11.8,15.91,15.91,0,0,0,0,4.14,4.54,4.54,0,0,0,2.6,3.77c1.83,1,2.27,2.33,1.49,4.39-.44,1.17-1,2.26-1.48,3.43a7,7,0,0,0,.17,6,8,8,0,0,1,.52,6.36,14.78,14.78,0,0,0-.46,5.65,28.6,28.6,0,0,1,0,7,12.5,12.5,0,0,0-.11,2.86,4.22,4.22,0,0,0,.88,2.13,3.31,3.31,0,0,0,5.75-1.08,14.27,14.27,0,0,0,.86-4.94,18.67,18.67,0,0,1,1.56-7.26,25.31,25.31,0,0,0,1.35-5.52,24.81,24.81,0,0,0,.19-3.13c.5.39,1.13.84,1.74,1.32a26.89,26.89,0,0,1,6.72,8.48,15.38,15.38,0,0,0,2.39,3.38,9.26,9.26,0,0,1,2.68,7.37,10.8,10.8,0,0,0,.4,4.14,46.53,46.53,0,0,1,2,7.44,11.33,11.33,0,0,0,3.06,6.21,3.6,3.6,0,0,0,5.74-.55m-16.52-64a20.64,20.64,0,0,1-2.27,3c-.5-.37-1-.53-1.14-.85a13.74,13.74,0,0,0-3.09-3.86c-.47-.4-.48-1.37-.74-2.22a5.49,5.49,0,0,0,4.18-3.67c1.27-3.25,2-3.59,6.23-3.17-3.12,2.19-3.1,4.79-2.43,7.72a5.13,5.13,0,0,1-.74,3.07"/><path class="cls-1" d="M549.77,105.41a2.58,2.58,0,0,0-2,3.3c.37,2,1.51,3.05,3.42,2.88a9.41,9.41,0,0,1,4.49,1c2.21.87,3.89,3,6.66,2.67a7.09,7.09,0,0,1-.39,1.24,13.28,13.28,0,0,0-1.59,6.34,7,7,0,0,1-1,3,4.86,4.86,0,0,0-.56,3.81,13.76,13.76,0,0,0,1.13,3.09,3.36,3.36,0,0,1,.12,3.28,9.06,9.06,0,0,0,0,8.09,3.11,3.11,0,0,1,.39,1.47c-.16,3.16.08,6.44-.68,9.44a45,45,0,0,0-1.08,12.48,9.34,9.34,0,0,0,1.58,5.41c1.11,1.52,2.49,1.39,3.41-.24a5.72,5.72,0,0,0,.45-1.24q.94-3.15,1.84-6.33a21.17,21.17,0,0,0,.86-3.4c.57-5,1.11-9.93,1.55-14.9.24-2.76.67-5.4,2.27-7.71a4,4,0,0,0,.73-1.81c.15-2.12.44-4.27-.34-6.34a3.19,3.19,0,0,1,.18-2.76,13.9,13.9,0,0,0,1.24-8.57c-.16-1.36-.14-2.75-.21-4.13l.52-.39a8.16,8.16,0,0,1,2.19,1.09c2.44,2.33,5.41,2.57,8.39,2.09a4.87,4.87,0,0,1,4.14,1,9.38,9.38,0,0,0,5.55,2c2.88.11,4-.91,4.11-3.8.59-.44,1.2-.82,1.74-1.3a2.84,2.84,0,0,0,.22-4.42,7,7,0,0,0-2.44-1.68,16.47,16.47,0,0,0-3.73-.88,3.15,3.15,0,0,1-2.18-1.17,5.7,5.7,0,0,0-4.52-2.11c-1.35,0-2.7,0-4.07,0-1.82-2.58-2.37-2.77-5.74-2.3-1.45.19-2.94.57-4.63-.19a26.85,26.85,0,0,1,1-3.32,40.13,40.13,0,0,0,2.93-9.67,37.94,37.94,0,0,1,3-10.54l.13-.42c.37-2.55.44-5-1.67-6.92-1.68-1.53-1.72-1.93-.6-3.93s2.38-4,3.42-6.11a12,12,0,0,0,1.26-3.92c.26-2.7-1.52-4.24-4.13-3.81-2.34.39-3.74,1.94-4.67,4.09-.67,1.53-1.39,3-2.1,4.56-1.82,3.91-3.73,7.77-4.27,12.18a23.77,23.77,0,0,1-1.28,4.63,21.62,21.62,0,0,0-1.4,7.33,10.8,10.8,0,0,1-1.09,4.9,10.5,10.5,0,0,0-.82,6.66c.51,2.64-.28,3.58-2.82,3.59a5.52,5.52,0,0,0-3.82,1.1,5.26,5.26,0,0,1-3.34,1.24,8.8,8.8,0,0,0-1.68.28"/><path class="cls-1" d="M163.64,124c-2.54,1.9-4.2,1.92-6.78,0-.76-.55-1.47-1.16-2.24-1.69-1.35-.93-2.76-1.24-4.13-.08a2.13,2.13,0,0,1-2.58.21,3.88,3.88,0,0,0-4.24.38c-1,.66-2,1.46-3,2.08-1.43.85-2.76.07-2.78-1.64a4.33,4.33,0,0,1,.32-1.71c.46-1.07,1-2.11,1.56-3.13a40.68,40.68,0,0,0,2.15-3.8c1.28-3.08.81-4.6-1.78-6.38l-1.06-.71c.37-2.86,2.13-4.53,4-6.15,2.5-2.18,5-4.32,7.44-6.61,1.35-1.27,2.25-2.87,1.31-4.87a7.11,7.11,0,0,1,4.15-1.2c1.21,0,2.42,0,3.63,0a9.15,9.15,0,0,0,7.6-3.77,3.49,3.49,0,0,0,.49-3.74,3,3,0,0,0-3-1.71c-2.34.11-4.69.14-7,.36A2.59,2.59,0,0,1,155,79a3.64,3.64,0,0,0-3.26-1.28,14.19,14.19,0,0,0-8.57,3.47,4.86,4.86,0,0,0-1.64,2.71,4.16,4.16,0,0,1-3.78,4l-1,.33c-4.25,1.26-5.66,3-6.24,7.54a17,17,0,0,1-1.31,5.51,17.13,17.13,0,0,0-1.95,7.13,6.92,6.92,0,0,1-1.81,4.37,13.6,13.6,0,0,0-2.15,2.73,15.08,15.08,0,0,0-1.48,4.31,2.65,2.65,0,0,0,2.67,3.2c.32,0,.64,0,1.17,0a13.18,13.18,0,0,0-1.15,2.08,17.65,17.65,0,0,0-1,4c-.17,2.11.8,3.1,2.87,3.26,1,.09,2,0,3,.06,2.07.06,2.72.76,2.32,2.86-.37,1.94,0,3.61,1.56,4.71a4.47,4.47,0,0,1,1.75,4,12.51,12.51,0,0,0,.4,3.05,5.41,5.41,0,0,0,1.15,2.05,2,2,0,0,0,3,.2,10.94,10.94,0,0,0,2.06-2.75c.81-1.55,1.35-3.26,2.14-4.81a20,20,0,0,1,2.22-3.48,2.41,2.41,0,0,1,3-.81,4.2,4.2,0,0,0,2.84-.24,9.43,9.43,0,0,0,2.86-1.87,5.28,5.28,0,0,1,4.91-1.4,7.9,7.9,0,0,0,9.13-6.8,4.8,4.8,0,0,0-.5-2.92c-1-1.72-2.57-1.7-4.59-.2"/><path class="cls-1" d="M503.64,111.87a5.28,5.28,0,0,1-.9-6.08,28.3,28.3,0,0,0,1.77-4.49,15,15,0,0,0-.9-11.14,7.16,7.16,0,0,1-.65-2.52,7.48,7.48,0,0,0-2.1-4.67,21.31,21.31,0,0,0-7.9-5.46c-4.27-1.55-8.24-1-11.54,2.12-2.12,2-3.76,4.59-5.65,6.88a9.23,9.23,0,0,1-2,1.93c-3.3,2.18-5.88,4.91-6.53,9.1a13,13,0,0,1-2.81,6.53,7.26,7.26,0,0,0-.45,8.64c2.33,3.1,2.75,6.52,2.28,10.23-.19,1.46-.28,2.93-.44,4.7a31.75,31.75,0,0,0,.67,4.49c.49,1.78,1.86,2.71,3.37,2.31,1.77-.48,3,.37,4.34,1.24a25.79,25.79,0,0,0,3.32,1.86,2.77,2.77,0,0,1,1.52,1.36c1.14,2.32,2.54,3.09,5.06,2.59,1.94-.39,3.79-1.16,5.82-.77a2.21,2.21,0,0,0,1.44-.34c2.07-1.27,4.44-2.26,6.08-4a81.69,81.69,0,0,0,8.06-10c1.46-2.1,2.53-4.58,1.85-7.47a18.05,18.05,0,0,0-3.74-7.09m-15.54,7.49c1,2.25,1,2.29.77,4.51l-3.92.38c-1-1.64-1.92-3.11-2.84-4.57-.79-1.23-1.75-2.19-3.28-2.11-1.12.05-1.51-.63-1.69-1.58s-.36-2-.56-3a7.29,7.29,0,0,1,2.17-7.22,7.11,7.11,0,0,0,2.4-6.88c-.37-2.25,1.17-3.59,3-4.53-.32,1.42-.66,2.83-.93,4.26a6.16,6.16,0,0,0,2.87,6.6c.53.38,1.11.66,1.63,1a2.54,2.54,0,0,1,1.12,3.41c-.25.77-.59,1.5-.89,2.25a9,9,0,0,0,.14,7.48"/><path class="cls-1" d="M112.91,99.66a21.32,21.32,0,0,1,1.32-8,7.39,7.39,0,0,0,.18-5.81,10.34,10.34,0,0,1-.83-6.42v-.89a2.49,2.49,0,0,0-2.52-2.68,6,6,0,0,0-4,1.07,2.58,2.58,0,0,1-1.5.56c-2.58-.16-3.55.58-3.22,3.16a16.9,16.9,0,0,1-.92,8A8.66,8.66,0,0,0,101.1,90c-.33,1.59-.11,2.94,1.49,3.69a2,2,0,0,1,1.09,2.4,14.4,14.4,0,0,1-.87,2.7c-.58,1.5-1.29,3-1.79,4.48-.81,2.51-.56,4.82,1.62,6.56a3.1,3.1,0,0,1,1.25,2.67c-.09,2.2-.1,4.41-.39,6.59a7.64,7.64,0,0,0,.17,4.32,5.92,5.92,0,0,1,.38,3.88,5.6,5.6,0,0,0,.83,4.41,6.7,6.7,0,0,1,1,4c0,1.33,0,2.66,0,4h-.06c0,1.55,0,3.11,0,4.65a7.55,7.55,0,0,0,1.79,5.07c1.44,1.55,3.17,1.37,4.28-.43a4.27,4.27,0,0,0,.62-1.63,30.15,30.15,0,0,0,.36-5.26A22,22,0,0,1,115,130a15.36,15.36,0,0,0,.69-2.08,9.92,9.92,0,0,0-.65-8.31l-.19-.39A4.07,4.07,0,0,1,115,115c.69-1.12,1.2-2.36,1.92-3.45a5.11,5.11,0,0,0-1.77-7.57c-1.76-1.06-2.2-2.49-2.25-4.36"/><path class="cls-1" d="M104.72,67.89a5.39,5.39,0,0,0,5.59,1.17,5.09,5.09,0,0,0,3.2-4.8,56,56,0,0,1,1.34-8.92c.75-3.18-1.12-5.15-4.54-4.65.18-1.07.37-1.91.46-2.77.3-2.54-1.51-4.91-3.66-4.65a6.54,6.54,0,0,0-4.32,2.15,4.79,4.79,0,0,0-.69,5.51c1,1.49.68,2.68,0,4.08a25,25,0,0,0-1.9,4.42,5.27,5.27,0,0,0,1.32,5.67c1,1,2.16,1.87,3.25,2.79"/><polyline class="cls-1" points="589.6 184.98 589.6 185.4 588.42 185.4 588.42 188.58 587.95 188.58 587.95 185.4 586.77 185.4 586.77 184.98"/><polyline class="cls-1" points="589.92 184.98 590.59 184.98 591.6 188.02 592.59 184.98 593.26 184.98 593.26 188.58 592.82 188.58 592.82 186.47 592.82 186.08 592.82 185.54 591.83 188.58 591.36 188.58 590.34 185.54 590.34 185.65 590.37 186.05 590.37 188.58 589.92 188.58"/></g></g></svg>